<svg width="48" height="48" viewBox="0 0 48 48" fill="none" xmlns="http://www.w3.org/2000/svg">
<rect width="48" height="48" fill="#323238"/>
<path d="M16.7031 12C14.1168 12 12 14.1167 12 16.7031V31.2977C12 33.884 14.1167 36 16.7031 36H31.2977C33.884 36 36 33.884 36 31.2977V16.7031C36 14.1168 33.884 12 31.2977 12H16.7031ZM17.886 15.9605C19.1261 15.9605 19.8899 16.7746 19.9135 17.8447C19.9135 18.8912 19.126 19.7282 17.862 19.7282H17.8388C16.6223 19.7282 15.836 18.8913 15.836 17.8447C15.836 16.7746 16.6461 15.9605 17.886 15.9605H17.886ZM28.5726 20.9621C30.9575 20.9621 32.7454 22.5209 32.7454 25.8707V32.1242H29.1209V26.29C29.1209 24.8239 28.5964 23.8237 27.2847 23.8237C26.2834 23.8237 25.6865 24.4978 25.4245 25.1491C25.3287 25.3821 25.3052 25.7075 25.3052 26.0335V32.1242H21.6807C21.6807 32.1242 21.7283 22.2412 21.6807 21.2179H25.3059V22.7623C25.7876 22.0192 26.6491 20.9621 28.5726 20.9621V20.9621ZM16.0498 21.2187H19.6742V32.1243H16.0498V21.2187Z" fill="white"/>
</svg>
